# Blender v3.1.2 OBJ File: 'door.blend'
# www.blender.org
mtllib door.mtl
o Cube
v 1.522067 3.161471 -0.222890
v 1.522067 -0.812507 -0.222890
v 1.522067 3.161471 0.222890
v 1.522067 -0.812507 0.222890
v -1.522067 3.161471 -0.222890
v -1.522067 -0.812507 -0.222890
v -1.522067 3.161471 0.222890
v -1.522067 -0.812507 0.222890
vt 0.625000 0.500000
vt 0.875000 0.500000
vt 0.875000 0.750000
vt 0.625000 0.750000
vt 0.375000 0.750000
vt 0.625000 1.000000
vt 0.375000 1.000000
vt 0.375000 0.000000
vt 0.625000 0.000000
vt 0.625000 0.250000
vt 0.375000 0.250000
vt 0.125000 0.500000
vt 0.375000 0.500000
vt 0.125000 0.750000
vn 0.0000 1.0000 0.0000
vn 0.0000 0.0000 1.0000
vn -1.0000 0.0000 0.0000
vn 0.0000 -1.0000 0.0000
vn 1.0000 0.0000 0.0000
vn 0.0000 0.0000 -1.0000
usemtl Material
s off
f 1/1/1 5/2/1 7/3/1 3/4/1
f 4/5/2 3/4/2 7/6/2 8/7/2
f 8/8/3 7/9/3 5/10/3 6/11/3
f 6/12/4 2/13/4 4/5/4 8/14/4
f 2/13/5 1/1/5 3/4/5 4/5/5
f 6/11/6 5/10/6 1/1/6 2/13/6
o Cube.001
v -1.000564 0.772976 0.307206
v -1.000564 0.772976 0.435994
v -1.208354 0.772976 0.307206
v -1.208354 0.772976 0.435994
v -1.000564 1.495048 0.307206
v -1.000564 1.495048 0.435994
v -1.208354 1.495048 0.307206
v -1.208354 1.495048 0.435994
v -1.104459 0.772976 0.307206
v -1.208354 1.134012 0.307206
v -1.104459 1.495048 0.307206
v -1.000564 1.134012 0.307206
v -1.104459 1.134012 0.307206
v -1.052511 0.772976 0.307206
v -1.208354 0.953494 0.307206
v -1.156406 1.495048 0.307206
v -1.000564 1.314530 0.307206
v -1.156406 0.772976 0.307206
v -1.208354 1.314530 0.307206
v -1.052511 1.495048 0.307206
v -1.000564 0.953494 0.307206
v -1.052511 1.134012 0.307206
v -1.156406 1.134012 0.307206
v -1.104459 0.953494 0.307206
v -1.104459 1.314530 0.307206
v -1.156406 1.314530 0.307206
v -1.156406 0.953494 0.307206
v -1.052511 0.953494 0.307206
v -1.052511 1.314530 0.307206
v -1.052511 0.772976 0.208653
v -1.000564 0.772976 0.208653
v -1.208354 0.953494 0.208653
v -1.208354 0.772976 0.208653
v -1.156406 1.495048 0.208653
v -1.208354 1.495048 0.208653
v -1.000564 1.314530 0.208653
v -1.000564 1.495048 0.208653
v -1.156406 0.772976 0.208653
v -1.104459 0.772976 0.208653
v -1.052511 1.495048 0.208653
v -1.104459 1.495048 0.208653
v -1.104459 0.953494 0.208653
v -1.208354 1.314530 0.208653
v -1.000564 0.953494 0.208653
v -1.104459 1.314530 0.208653
v -1.156406 1.314530 0.208653
v -1.156406 0.953494 0.208653
v -1.052511 0.953494 0.208653
v -1.052511 1.314530 0.208653
vt 0.375000 0.000000
vt 0.625000 0.000000
vt 0.625000 0.250000
vt 0.375000 0.250000
vt 0.375000 0.187500
vt 0.375000 0.125000
vt 0.375000 0.062500
vt 0.625000 0.500000
vt 0.375000 0.500000
vt 0.375000 0.437500
vt 0.375000 0.375000
vt 0.375000 0.312500
vt 0.625000 0.750000
vt 0.375000 0.750000
vt 0.375000 0.687500
vt 0.375000 0.625000
vt 0.375000 0.562500
vt 0.625000 1.000000
vt 0.375000 1.000000
vt 0.375000 0.937500
vt 0.375000 0.875000
vt 0.375000 0.812500
vt 0.187500 0.500000
vt 0.187500 0.562500
vt 0.187500 0.562500
vt 0.187500 0.500000
vt 0.875000 0.500000
vt 0.875000 0.750000
vt 0.187500 0.687500
vt 0.250000 0.687500
vt 0.250000 0.750000
vt 0.187500 0.750000
vt 0.250000 0.562500
vt 0.250000 0.625000
vt 0.187500 0.625000
vt 0.375000 0.625000
vt 0.375000 0.562500
vt 0.312500 0.562500
vt 0.312500 0.625000
vt 0.250000 0.500000
vt 0.312500 0.500000
vt 0.375000 0.500000
vt 0.312500 0.750000
vt 0.312500 0.687500
vt 0.312500 0.687500
vt 0.312500 0.750000
vt 0.375000 0.687500
vt 0.187500 0.625000
vt 0.375000 0.125000
vt 0.375000 0.062500
vt 0.375000 1.000000
vt 0.375000 0.937500
vt 0.375000 0.750000
vt 0.312500 0.562500
vt 0.312500 0.625000
vt 0.312500 0.500000
vt 0.125000 0.562500
vt 0.125000 0.625000
vt 0.125000 0.500000
vt 0.125000 0.687500
vt 0.187500 0.687500
vt 0.187500 0.750000
vt 0.125000 0.750000
vt 0.375000 0.000000
vt 0.375000 0.250000
vt 0.375000 0.187500
vt 0.375000 0.812500
vt 0.375000 0.437500
vt 0.375000 0.312500
vn 0.0000 -1.0000 -0.0000
vn -1.0000 0.0000 0.0000
vn 0.0000 1.0000 0.0000
vn 1.0000 0.0000 0.0000
vn 0.0000 0.0000 1.0000
vn 0.0000 0.0000 -1.0000
usemtl Material.001
s off
f 9/15/7 10/16/7 12/17/7 11/18/7 26/19/7 17/20/7 22/21/7
f 11/18/8 12/17/8 16/22/8 15/23/8 27/24/8 18/25/8 23/26/8
f 15/23/9 16/22/9 14/27/9 13/28/9 28/29/9 19/30/9 24/31/9
f 13/28/10 14/27/10 10/32/10 9/33/10 29/34/10 20/35/10 25/36/10
f 23/37/9 35/38/9 55/39/9 40/40/9
f 16/22/11 12/41/11 10/42/11 14/27/11
f 36/43/12 30/44/12 20/45/12 29/46/12
f 35/38/12 31/47/12 21/48/12 32/49/12
f 24/31/9 19/30/9 49/50/9 42/51/9
f 31/47/12 34/52/12 33/53/12 21/48/12
f 18/54/12 27/55/12 34/52/12 31/47/12
f 15/23/9 24/31/9 42/51/9 43/56/9
f 25/57/7 37/58/7 57/59/7 44/60/7
f 19/30/9 28/29/9 48/61/9 49/50/9
f 23/37/12 18/54/12 31/47/12 35/38/12
f 35/38/9 32/49/9 50/62/9 55/39/9
f 22/21/7 17/20/7 47/63/7 38/64/7
f 32/49/12 21/48/12 30/44/12 36/43/12
f 30/44/12 37/58/12 25/57/12 20/45/12
f 21/48/12 33/53/12 37/58/12 30/44/12
f 29/34/10 9/33/10 39/65/10 52/66/10
f 57/59/12 48/61/12 45/67/12 44/60/12
f 54/68/12 42/51/12 49/50/12 53/69/12
f 51/70/12 43/56/12 42/51/12 54/68/12
f 46/71/12 55/39/12 50/62/12 47/72/12
f 41/73/12 40/40/12 55/39/12 46/71/12
f 38/74/12 56/75/12 52/76/12 39/77/12
f 47/72/12 50/62/12 56/75/12 38/74/12
f 53/69/12 49/50/12 48/61/12 57/59/12
f 9/15/7 22/21/7 38/64/7 39/78/7
f 37/58/7 33/53/7 53/69/7 57/59/7
f 26/19/7 11/18/7 41/79/7 46/80/7
f 33/53/7 34/52/7 54/68/7 53/69/7
f 13/28/10 25/36/10 44/81/10 45/67/10
f 27/24/8 15/23/8 43/56/8 51/82/8
f 36/43/9 29/46/9 52/76/9 56/75/9
f 34/52/7 27/55/7 51/70/7 54/68/7
f 28/29/9 13/28/9 45/67/9 48/61/9
f 32/49/9 36/43/9 56/75/9 50/62/9
f 11/18/8 23/26/8 40/83/8 41/79/8
f 17/20/7 26/19/7 46/80/7 47/63/7
