# Blender v3.1.2 OBJ File: 'frank.blend'
# www.blender.org
mtllib frank.mtl
o Cube
v 0.098013 0.089211 -0.098013
v 0.098013 -0.110544 -0.070390
v 0.098013 0.108601 0.098013
v 0.098013 -0.098013 0.098013
v -0.098013 0.089211 -0.098013
v -0.098013 -0.110544 -0.070390
v -0.098013 0.108601 0.098013
v -0.098013 -0.098013 0.098013
v 0.098013 -0.110544 0.000000
v 0.098013 0.098013 0.000000
v 0.098013 0.000000 0.098013
v 0.098013 0.000000 -0.098013
v -0.069529 -0.048716 0.278684
v -0.044488 -0.030266 0.327218
v -0.042355 -0.018990 0.310989
v -0.075096 -0.003609 0.276881
v 0.077635 0.003767 0.271287
v 0.040134 -0.014499 0.313572
v 0.042018 -0.034086 0.331951
v 0.072659 -0.055770 0.275197
v 0.098013 0.000000 0.000000
v 0.098013 0.108601 0.049007
v 0.098013 0.049007 0.000000
v 0.098013 0.089211 -0.049007
v 0.098013 0.000000 0.049007
v 0.098013 0.049007 -0.098013
v 0.098013 0.000000 -0.049007
v 0.098013 0.049007 0.098013
v 0.098013 0.049007 -0.049007
v 0.098013 0.049007 0.049007
v -0.098013 -0.110544 0.000000
v -0.098013 0.000000 0.098013
v -0.098013 0.000000 -0.098013
v -0.098013 0.098013 0.000000
v -0.098013 0.000000 0.000000
v -0.098013 0.049007 0.098013
v -0.098013 0.089211 -0.049007
v -0.098013 0.049007 -0.098013
v -0.098013 0.108601 0.049007
v -0.098013 0.000000 -0.049007
v -0.098013 0.000000 0.049007
v -0.098013 0.049007 0.000000
v -0.098013 0.049007 0.049007
v -0.098013 0.049007 -0.049007
v 0.318827 0.049007 0.000000
v 0.318827 0.000000 0.000000
v 0.318827 0.000000 0.049007
v 0.318827 0.000000 0.098013
v 0.318827 0.049007 -0.098013
v 0.318827 0.000000 -0.098013
v 0.318827 0.000000 -0.049007
v 0.318827 0.049007 0.098013
v 0.318827 0.049007 -0.049007
v 0.318827 0.049007 0.049007
v 0.382443 0.090159 0.000000
v 0.382443 0.041152 0.000000
v 0.382443 0.041152 0.049007
v 0.382443 0.041152 0.098013
v 0.382443 0.090159 -0.098013
v 0.382443 0.041152 -0.098013
v 0.382443 0.041152 -0.049007
v 0.382443 0.090159 0.098013
v 0.382443 0.090159 -0.049007
v 0.382443 0.090159 0.049007
v -0.097093 0.000020 -0.098718
v -0.097093 0.000020 0.097308
v -0.097093 0.000020 -0.000705
v -0.097093 0.049026 -0.000705
v -0.097093 0.000020 -0.049712
v -0.097093 0.049026 0.097308
v -0.097093 0.000020 0.048301
v -0.097093 0.049026 -0.098718
v -0.097093 0.049026 0.048301
v -0.097093 0.049026 -0.049712
v -0.317907 0.049026 -0.000705
v -0.317907 0.000020 -0.000705
v -0.317907 0.000020 -0.049712
v -0.317907 0.000020 -0.098718
v -0.317907 0.049026 0.097308
v -0.317907 0.000020 0.097308
v -0.317907 0.000020 0.048301
v -0.317907 0.049026 -0.098718
v -0.317907 0.049026 0.048301
v -0.317907 0.049026 -0.049712
v -0.381523 0.090179 -0.000705
v -0.381523 0.041172 -0.000705
v -0.381523 0.041172 -0.049712
v -0.381523 0.041172 -0.098718
v -0.381523 0.090179 0.097308
v -0.381523 0.041172 0.097308
v -0.381523 0.041172 0.048301
v -0.381523 0.090179 -0.098718
v -0.381523 0.090179 0.048301
v -0.381523 0.090179 -0.049712
v -0.028454 0.049007 -0.250492
v 0.018331 0.049007 -0.250492
v -0.028454 0.060856 -0.250492
v 0.018331 0.060856 -0.250492
v -0.028454 0.000000 -0.250492
v 0.018331 0.000000 -0.250492
v 0.018331 -0.060856 -0.250492
v -0.028454 -0.060856 -0.250492
v 0.018331 -0.060856 -0.170989
v 0.098013 -0.098013 -0.106210
v -0.098013 -0.098013 -0.106210
v -0.028454 -0.060856 -0.170989
v 0.018331 0.000000 -0.170989
v 0.098013 0.000000 -0.133833
v -0.098013 0.000000 -0.133833
v -0.028454 0.000000 -0.170989
v -0.028454 0.060856 -0.170989
v -0.098013 0.085417 -0.133833
v 0.098013 0.085417 -0.133833
v 0.018331 0.060856 -0.170989
v 0.018331 0.049007 -0.170989
v 0.098013 0.049007 -0.133833
v -0.098013 0.049007 -0.133833
v -0.028454 0.049007 -0.170989
v -0.028454 0.024503 -0.250492
v -0.005061 0.060856 -0.250492
v 0.018331 0.054932 -0.250492
v -0.005061 -0.060856 -0.250492
v -0.028454 0.054932 -0.250492
v 0.018331 -0.030428 -0.250492
v -0.028454 -0.030428 -0.250492
v 0.018331 0.024503 -0.250492
v -0.028454 0.024503 -0.250492
v -0.028454 0.000000 -0.250492
v -0.005061 0.060856 -0.250492
v -0.028454 0.060856 -0.250492
v 0.018331 0.054932 -0.250492
v 0.018331 0.060856 -0.250492
v -0.005061 -0.060856 -0.250492
v 0.018331 -0.060856 -0.250492
v -0.028454 0.054932 -0.250492
v -0.028454 0.049007 -0.250492
v 0.018331 -0.030428 -0.250492
v 0.018331 0.000000 -0.250492
v -0.028454 -0.030428 -0.250492
v -0.028454 -0.060856 -0.250492
v 0.018331 0.024503 -0.250492
v 0.018331 0.049007 -0.250492
v -0.059776 0.024503 -0.321126
v -0.059776 0.000000 -0.321126
v -0.005061 0.106549 -0.297706
v -0.059776 0.060856 -0.321126
v 0.035638 0.054932 -0.326006
v 0.035638 0.060856 -0.326006
v -0.005061 -0.113162 -0.302580
v 0.035638 -0.060856 -0.326006
v -0.059776 0.054932 -0.321126
v -0.059776 0.049007 -0.321126
v 0.035638 -0.030428 -0.326006
v 0.035638 0.000000 -0.326006
v -0.059776 -0.030428 -0.321126
v -0.059776 -0.060856 -0.321126
v 0.035638 0.024503 -0.326006
v 0.035638 0.049007 -0.326006
v -0.049220 -0.036261 0.330221
v 0.046243 -0.034658 0.334615
v 0.000000 0.022188 0.334706
v 0.000000 -0.065266 0.370672
v 0.000000 -0.021539 0.370672
v -0.098013 -0.113373 0.246573
v -0.022188 -0.065266 0.370672
v -0.022188 -0.021539 0.370672
v -0.022188 0.022188 0.334706
v -0.098013 0.063931 0.225469
v -0.098013 -0.113373 0.246573
v -0.022188 -0.065266 0.370672
v -0.022188 -0.021539 0.370672
v -0.022188 0.022188 0.334706
v -0.098013 0.063931 0.225469
v 0.098013 0.063931 0.225469
v 0.022188 0.022188 0.334706
v 0.022188 -0.021539 0.370672
v 0.022188 -0.065266 0.370672
v 0.098013 -0.113373 0.246573
v -0.079751 -0.071752 0.267297
v -0.036420 -0.042741 0.342675
v -0.039499 -0.031024 0.344568
v -0.035101 -0.004324 0.319424
v -0.083389 0.020479 0.258614
v 0.083267 0.020117 0.258891
v 0.035209 -0.004545 0.319296
v 0.039643 -0.031103 0.344350
v 0.036539 -0.042553 0.342441
v 0.079598 -0.071404 0.267470
v 0.073484 0.003213 0.268567
v 0.035983 -0.015053 0.310852
v 0.042092 -0.035212 0.331895
v 0.037867 -0.034641 0.329231
v 0.068508 -0.056324 0.272477
v -0.065117 -0.049309 0.275619
v -0.040076 -0.030860 0.324154
v -0.044809 -0.036855 0.327156
v -0.037943 -0.019583 0.307924
v -0.070684 -0.004203 0.273816
vt 0.625000 0.500000
vt 0.875000 0.500000
vt 0.875000 0.562500
vt 0.875000 0.625000
vt 0.875000 0.687500
vt 0.875000 0.750000
vt 0.625000 0.750000
vt 0.625000 0.687500
vt 0.625000 0.625000
vt 0.625000 0.562500
vt 0.875000 0.750000
vt 0.625000 0.750000
vt 0.562500 0.187500
vt 0.625000 0.187500
vt 0.625000 0.250000
vt 0.562500 0.250000
vt 0.125000 0.500000
vt 0.375000 0.500000
vt 0.375000 0.625000
vt 0.375000 0.750000
vt 0.125000 0.750000
vt 0.125000 0.625000
vt 0.562500 0.687500
vt 0.562500 0.750000
vt 0.625000 0.500000
vt 0.875000 0.500000
vt 0.375000 0.750000
vt 0.125000 0.750000
vt 0.500000 0.750000
vt 0.500000 0.625000
vt 0.500000 0.687500
vt 0.500000 0.875000
vt 0.528298 0.875000
vt 0.528298 0.903298
vt 0.500000 0.903298
vt 0.490697 0.929944
vt 0.484482 0.930992
vt 0.484482 0.930992
vt 0.490697 0.929944
vt 0.457773 0.779092
vt 0.533871 0.780661
vt 0.533871 0.780661
vt 0.457773 0.779092
vt 0.625000 1.000000
vt 0.528298 0.846702
vt 0.375000 1.000000
vt 0.471702 0.846702
vt 0.471702 0.875000
vt 0.471702 0.903298
vt 0.625000 0.000000
vt 0.562500 0.000000
vt 0.500000 0.000000
vt 0.375000 0.000000
vt 0.375000 0.000000
vt 0.625000 0.000000
vt 0.500000 0.500000
vt 0.500000 0.562500
vt 0.562500 0.562500
vt 0.562500 0.625000
vt 0.562500 0.500000
vt 0.562500 0.500000
vt 0.500000 0.500000
vt 0.562500 0.625000
vt 0.562500 0.562500
vt 0.500000 0.750000
vt 0.562500 0.750000
vt 0.500000 0.625000
vt 0.500000 0.687500
vt 0.375000 0.125000
vt 0.500000 0.125000
vt 0.500000 0.187500
vt 0.500000 0.250000
vt 0.375000 0.250000
vt 0.500000 0.062500
vt 0.562500 0.062500
vt 0.625000 0.062500
vt 0.625000 0.125000
vt 0.562500 0.125000
vt 0.562500 0.687500
vt 0.562500 0.750000
vt 0.562500 0.687500
vt 0.500000 0.562500
vt 0.500000 0.562500
vt 0.500000 0.625000
vt 0.500000 0.500000
vt 0.562500 0.500000
vt 0.562500 0.562500
vt 0.562500 0.625000
vt 0.500000 0.687500
vt 0.500000 0.750000
vt 0.500000 0.500000
vt 0.562500 0.500000
vt 0.562500 0.500000
vt 0.500000 0.500000
vt 0.562500 0.562500
vt 0.562500 0.625000
vt 0.562500 0.625000
vt 0.562500 0.562500
vt 0.562500 0.750000
vt 0.500000 0.750000
vt 0.500000 0.750000
vt 0.562500 0.750000
vt 0.500000 0.687500
vt 0.500000 0.625000
vt 0.500000 0.625000
vt 0.500000 0.687500
vt 0.562500 0.687500
vt 0.562500 0.750000
vt 0.562500 0.687500
vt 0.500000 0.562500
vt 0.500000 0.562500
vt 0.500000 0.625000
vt 0.500000 0.500000
vt 0.562500 0.500000
vt 0.562500 0.687500
vt 0.500000 0.562500
vt 0.562500 0.562500
vt 0.562500 0.625000
vt 0.500000 0.687500
vt 0.500000 0.750000
vt 0.375000 0.500000
vt 0.500000 0.500000
vt 0.577613 0.297387
vt 0.577613 0.375000
vt 0.577613 0.375000
vt 0.577613 0.297387
vt 0.562500 0.250000
vt 0.500000 0.250000
vt 0.562500 0.500000
vt 0.577613 0.297387
vt 0.577613 0.452613
vt 0.577613 0.452613
vt 0.577613 0.375000
vt 0.577613 0.297387
vt 0.625000 0.250000
vt 0.375000 0.250000
vt 0.422387 0.297387
vt 0.422387 0.452613
vt 0.500000 0.452613
vt 0.500000 0.297387
vt 0.562500 0.452613
vt 0.562500 0.297387
vt 0.125000 0.500000
vt 0.570056 0.297387
vt 0.562500 0.297387
vt 0.531250 0.297387
vt 0.500000 0.297387
vt 0.562500 0.452613
vt 0.570056 0.452613
vt 0.500000 0.452613
vt 0.531250 0.452613
vt 0.422387 0.297387
vt 0.422387 0.375000
vt 0.422387 0.452613
vt 0.461194 0.297387
vt 0.461194 0.452613
vt 0.531250 0.297387
vt 0.500000 0.297387
vt 0.570056 0.452613
vt 0.577613 0.452613
vt 0.422387 0.375000
vt 0.422387 0.452613
vt 0.570056 0.297387
vt 0.562500 0.297387
vt 0.461194 0.452613
vt 0.500000 0.452613
vt 0.461194 0.297387
vt 0.422387 0.297387
vt 0.531250 0.452613
vt 0.562500 0.452613
vt 0.422387 0.375000
vt 0.577613 0.452613
vt 0.570056 0.452613
vt 0.562500 0.452613
vt 0.531250 0.452613
vt 0.500000 0.452613
vt 0.461194 0.452613
vt 0.422387 0.452613
vt 0.422387 0.297387
vt 0.570056 0.297387
vt 0.562500 0.297387
vt 0.461194 0.297387
vt 0.500000 0.297387
vt 0.531250 0.297387
vt 0.500000 0.846702
vt 0.471702 0.903298
vt 0.375000 1.000000
vt 0.528298 0.903298
vt 0.500000 0.903298
vt 0.625000 1.000000
vt 0.000000 0.000000
vt 0.000000 0.000000
vt 0.000000 0.000000
vt 0.000000 0.000000
vt 0.481649 0.921025
vt 0.436164 0.979133
vt 0.513911 0.925386
vt 0.490738 0.919627
vt 0.557444 0.977331
vt 0.513750 0.824451
vt 0.556902 0.772852
vt 0.481762 0.828842
vt 0.490650 0.830214
vt 0.436655 0.771044
vt 0.467106 0.967235
vt 0.502156 0.935901
vt 0.523687 0.965869
vt 0.506125 0.817207
vt 0.487655 0.822731
vt 0.486629 0.822557
vt 0.506125 0.817207
vt 0.486629 0.822557
vt 0.487655 0.822731
vt 0.502156 0.935901
vt 0.523687 0.965869
vt 0.467106 0.967235
vn 0.0000 0.9951 -0.0984
vn 0.0000 0.9437 0.3307
vn -1.0000 0.0000 0.0000
vn 0.0000 -0.9972 0.0742
vn 1.0000 0.0000 0.0000
vn 0.0000 0.9944 -0.1053
vn 0.0000 -0.9947 -0.1028
vn 0.0000 0.6352 0.7723
vn 0.5670 -0.0354 0.8230
vn -0.5546 0.1006 0.8260
vn 0.0000 0.9341 0.3570
vn 0.0000 -0.9324 0.3614
vn 0.0000 0.0000 -1.0000
vn 0.0000 1.0000 0.0000
vn 0.0000 0.0000 1.0000
vn 0.0000 -1.0000 0.0000
vn -0.5431 0.8396 0.0000
vn 0.5431 -0.8396 0.0000
vn 0.5431 0.8396 -0.0000
vn -0.5431 -0.8396 0.0000
vn -0.5486 0.7200 0.4250
vn 0.0000 -0.8674 -0.4975
vn 0.5083 -0.1475 -0.8484
vn -0.5601 -0.1419 -0.8162
vn 0.0000 0.8342 -0.5514
vn 0.4226 0.0000 -0.9063
vn -0.4712 0.0000 -0.8820
vn 0.0000 -0.9439 -0.3302
vn -0.5370 0.0120 -0.8435
vn 0.6411 0.6853 0.3455
vn 0.9747 0.0000 0.2234
vn 0.6654 -0.6547 0.3586
vn -0.5693 -0.6938 0.4410
vn -0.9142 0.0000 0.4054
vn 0.3587 0.0133 -0.9333
vn -0.8714 0.1090 0.4784
vn -0.8751 0.3472 0.3371
vn -0.7732 0.1391 0.6187
vn -0.8519 0.0461 0.5216
vn -0.8688 -0.0650 0.4909
vn 0.7730 0.1391 0.6190
vn 0.8688 -0.0659 0.4907
vn 0.8714 0.1090 0.4783
vn 0.8519 0.0460 0.5216
vn 0.8751 0.3476 0.3368
vn -0.8872 0.1053 0.4492
vn -0.8563 0.4588 0.2372
vn -0.7188 0.1528 0.6783
vn -0.8484 -0.0165 0.5291
vn -0.5376 -0.8349 0.1181
vn 0.7278 0.1502 0.6692
vn 0.7334 -0.6155 0.2885
vn 0.8845 0.1057 0.4543
vn 0.8482 -0.0047 0.5297
vn 0.8597 0.4438 0.2531
vn 0.8313 0.1110 0.5447
vn -0.5392 -0.0771 0.8386
vn 0.5099 -0.5424 -0.6677
vn 0.0816 0.9449 -0.3170
vn 0.2502 -0.9497 -0.1884
vn -0.8163 0.1098 0.5671
vn -0.2551 -0.9494 -0.1833
vn -0.0901 0.9455 -0.3129
vn 0.5768 0.1036 0.8103
vn -0.5315 -0.5271 -0.6631
usemtl Material
s off
f 1/1/1 5/2/1 37/3/1 34/4/1 39/5/1 7/6/1 3/7/1 22/8/1 10/9/1 24/10/1
f 3/7/2 7/6/2 168/11/2 174/12/2
f 44/13/3 37/14/3 5/15/3 38/16/3
f 6/17/4 2/18/4 9/19/4 4/20/4 8/21/4 31/22/4
f 30/23/5 22/8/5 3/7/5 28/24/5
f 5/2/6 1/1/6 113/25/6 112/26/6
f 8/21/7 4/20/7 178/27/7 164/28/7
f 4/20/5 11/29/5 28/24/5 3/7/5 174/12/5 178/27/5
f 9/19/5 21/30/5 25/31/5 11/29/5 4/20/5
f 163/32/8 161/33/8 167/34/8 166/35/8
f 14/36/9 159/37/9 196/38/9 195/39/9
f 20/40/10 17/41/10 189/42/10 193/43/10
f 174/12/11 168/44/11 167/34/11 161/33/11 175/45/11
f 164/46/12 178/27/12 177/47/12 162/48/12 165/49/12
f 7/50/3 36/51/3 32/52/3 8/53/3 164/54/3 168/55/3
f 2/18/5 12/56/5 27/57/5 21/30/5 9/19/5
f 29/58/5 24/10/5 10/9/5 23/59/5
f 12/56/13 26/60/13 49/61/13 50/62/13
f 29/58/14 23/59/14 45/63/14 53/64/14
f 26/60/5 1/1/5 24/10/5 29/58/5
f 28/24/15 11/29/15 48/65/15 52/66/15
f 25/31/16 21/30/16 46/67/16 47/68/16
f 23/59/5 10/9/5 22/8/5 30/23/5
f 31/69/3 35/70/3 40/71/3 33/72/3 6/73/3
f 8/53/3 32/52/3 41/74/3 35/70/3 31/69/3
f 43/75/3 39/76/3 34/77/3 42/78/3
f 41/74/3 43/75/3 42/78/3 35/70/3
f 32/52/3 36/51/3 43/75/3 41/74/3
f 36/51/3 7/50/3 39/76/3 43/75/3
f 40/71/3 44/13/3 38/16/3 33/72/3
f 35/70/3 42/78/3 44/13/3 40/71/3
f 42/78/3 34/77/3 37/14/3 44/13/3
f 54/79/17 52/66/17 62/80/17 64/81/17
f 46/67/18 51/82/18 61/83/18 56/84/18
f 51/82/18 50/62/18 60/85/18 61/83/18
f 50/62/13 49/61/13 59/86/13 60/85/13
f 30/23/14 28/24/14 52/66/14 54/79/14
f 26/60/14 29/58/14 53/64/14 49/61/14
f 21/30/16 27/57/16 51/82/16 46/67/16
f 27/57/16 12/56/16 50/62/16 51/82/16
f 23/59/14 30/23/14 54/79/14 45/63/14
f 11/29/16 25/31/16 47/68/16 48/65/16
f 61/83/5 63/87/5 55/88/5 56/84/5
f 60/85/5 59/86/5 63/87/5 61/83/5
f 57/89/5 64/81/5 62/80/5 58/90/5
f 56/84/5 55/88/5 64/81/5 57/89/5
f 53/64/17 45/63/17 55/88/17 63/87/17
f 52/66/15 48/65/15 58/90/15 62/80/15
f 45/63/17 54/79/17 64/81/17 55/88/17
f 48/65/18 47/68/18 57/89/18 58/90/18
f 49/61/17 53/64/17 63/87/17 59/86/17
f 47/68/18 46/67/18 56/84/18 57/89/18
f 66/91/15 70/92/15 79/93/15 80/94/15
f 73/95/14 68/96/14 75/97/14 83/98/14
f 72/99/13 65/100/13 78/101/13 82/102/13
f 69/103/16 67/104/16 76/105/16 77/106/16
f 84/107/19 82/102/19 92/108/19 94/109/19
f 76/105/20 81/110/20 91/111/20 86/112/20
f 81/110/20 80/94/20 90/113/20 91/111/20
f 80/94/15 79/93/15 89/114/15 90/113/15
f 74/115/14 72/99/14 82/102/14 84/107/14
f 70/92/14 73/95/14 83/98/14 79/93/14
f 67/104/16 71/116/16 81/110/16 76/105/16
f 71/116/16 66/91/16 80/94/16 81/110/16
f 68/96/14 74/115/14 84/107/14 75/97/14
f 65/100/16 69/103/16 77/106/16 78/101/16
f 91/111/3 93/117/3 85/118/3 86/112/3
f 90/113/3 89/114/3 93/117/3 91/111/3
f 87/119/3 94/109/3 92/108/3 88/120/3
f 86/112/3 85/118/3 94/109/3 87/119/3
f 83/98/19 75/97/19 85/118/19 93/117/19
f 82/102/13 78/101/13 88/120/13 92/108/13
f 75/97/19 84/107/19 94/109/19 85/118/19
f 78/101/20 77/106/20 87/119/20 88/120/20
f 79/93/19 83/98/19 93/117/19 89/114/19
f 77/106/20 76/105/20 86/112/20 87/119/20
f 12/56/5 2/18/5 104/121/5 108/122/5
f 97/123/21 120/124/21 145/125/21 146/126/21
f 33/72/3 38/16/3 117/127/3 109/128/3
f 26/60/5 12/56/5 108/122/5 116/129/5
f 111/130/14 114/131/14 132/132/14 129/133/14 130/134/14
f 38/16/3 5/15/3 112/135/3 117/127/3
f 1/1/5 26/60/5 116/129/5 113/25/5
f 6/73/3 33/72/3 109/128/3 105/136/3
f 104/121/22 105/136/22 106/137/22 103/138/22
f 108/122/23 104/121/23 103/138/23 107/139/23
f 110/140/24 106/137/24 105/136/24 109/128/24
f 112/135/25 113/25/25 114/131/25 111/130/25
f 116/129/26 108/122/26 107/139/26 115/141/26
f 113/25/26 116/129/26 115/141/26 114/131/26
f 118/142/27 110/140/27 109/128/27 117/127/27
f 111/130/27 118/142/27 117/127/27 112/135/27
f 2/18/28 6/17/28 105/143/28 104/121/28
f 118/142/3 111/130/3 130/134/3 135/144/3 136/145/3
f 110/140/3 118/142/3 136/145/3 127/146/3 128/147/3
f 114/131/5 115/141/5 142/148/5 131/149/5 132/132/5
f 115/141/5 107/139/5 138/150/5 141/151/5 142/148/5
f 103/138/16 106/137/16 140/152/16 133/153/16 134/154/16
f 106/137/3 110/140/3 128/147/3 139/155/3 140/152/3
f 107/139/5 103/138/5 134/154/5 137/156/5 138/150/5
f 119/157/15 99/158/15 128/147/15 127/146/15
f 120/124/15 97/123/15 130/134/15 129/133/15
f 121/159/15 98/160/15 132/132/15 131/149/15
f 122/161/15 101/162/15 134/154/15 133/153/15
f 123/163/15 95/164/15 136/145/15 135/144/15
f 124/165/15 100/166/15 138/150/15 137/156/15
f 125/167/15 102/168/15 140/152/15 139/155/15
f 126/169/15 96/170/15 142/148/15 141/151/15
f 95/164/15 119/157/15 127/146/15 136/145/15
f 98/160/15 120/124/15 129/133/15 132/132/15
f 96/170/15 121/159/15 131/149/15 142/148/15
f 102/168/15 122/161/15 133/153/15 140/152/15
f 97/123/15 123/163/15 135/144/15 130/134/15
f 101/162/15 124/165/15 137/156/15 134/154/15
f 99/158/15 125/167/15 139/155/15 128/147/15
f 100/166/15 126/169/15 141/151/15 138/150/15
f 149/171/29 145/125/29 148/172/29 147/173/29 158/174/29 157/175/29 154/176/29 153/177/29 150/178/29
f 120/124/30 98/160/30 148/172/30 145/125/30
f 98/160/31 121/159/31 147/173/31 148/172/31
f 121/159/31 96/170/31 158/174/31 147/173/31
f 101/162/32 122/161/32 149/171/32 150/178/32
f 122/161/33 102/168/33 156/179/33 149/171/33
f 95/164/34 123/163/34 151/180/34 152/181/34
f 123/163/34 97/123/34 146/126/34 151/180/34
f 100/166/31 124/165/31 153/177/31 154/176/31
f 124/165/31 101/162/31 150/178/31 153/177/31
f 102/168/34 125/167/34 155/182/34 156/179/34
f 125/167/34 99/158/34 144/183/34 155/182/34
f 96/170/31 126/169/31 157/175/31 158/174/31
f 99/158/34 119/157/34 143/184/34 144/183/34
f 126/169/31 100/166/31 154/176/31 157/175/31
f 119/157/34 95/164/34 152/181/34 143/184/34
f 156/179/35 155/182/35 144/183/35 143/184/35 152/181/35 151/180/35 146/126/35 145/125/35 149/171/35
f 162/48/15 163/32/15 166/35/15 165/49/15
f 177/47/15 176/185/15 163/32/15 162/48/15
f 176/185/8 175/45/8 161/33/8 163/32/8
f 170/186/15 169/187/15 164/46/15 165/49/15
f 172/188/15 171/189/15 166/35/15 167/34/15
f 173/190/15 172/188/15 167/34/15 168/44/15
f 169/187/15 173/190/15 168/44/15 164/46/15
f 171/191/15 170/192/15 165/193/15 166/194/15
f 180/195/36 179/196/36 169/187/36 170/186/36
f 182/197/37 181/198/37 171/189/37 172/188/37
f 183/199/38 182/197/38 172/188/38 173/190/38
f 179/196/39 183/199/39 173/190/39 169/187/39
f 181/198/40 180/195/40 170/186/40 171/189/40
f 185/200/41 184/201/41 174/12/41 175/45/41
f 187/202/42 186/203/42 176/185/42 177/47/42
f 188/204/43 187/202/43 177/47/43 178/27/43
f 184/201/44 188/204/44 178/27/44 174/12/44
f 186/203/45 185/200/45 175/45/45 176/185/45
f 14/36/46 13/205/46 179/196/46 180/195/46
f 15/206/47 159/37/47 181/198/47 182/197/47
f 16/207/48 15/206/48 182/197/48 183/199/48
f 13/205/49 16/207/49 183/199/49 179/196/49
f 159/37/50 14/36/50 180/195/50 181/198/50
f 18/208/51 17/41/51 184/201/51 185/200/51
f 19/209/52 160/210/52 186/203/52 187/202/52
f 20/40/53 19/209/53 187/202/53 188/204/53
f 17/41/54 20/40/54 188/204/54 184/201/54
f 160/210/55 18/208/55 185/200/55 186/203/55
f 190/211/56 191/212/56 192/213/56 193/43/56 189/42/56
f 160/210/57 19/209/57 192/213/57 191/212/57
f 18/208/58 160/210/58 191/212/58 190/211/58
f 19/209/59 20/40/59 193/43/59 192/213/59
f 17/41/60 18/208/60 190/211/60 189/42/60
f 195/39/61 196/38/61 197/214/61 198/215/61 194/216/61
f 15/206/62 16/207/62 198/215/62 197/214/62
f 13/205/63 14/36/63 195/39/63 194/216/63
f 16/207/64 13/205/64 194/216/64 198/215/64
f 159/37/65 15/206/65 197/214/65 196/38/65
