# Blender v3.1.2 OBJ File: 'window.blend'
# www.blender.org
mtllib window.mtl
o Cube
v 0.241497 1.791981 -0.761990
v 0.241497 0.268002 -0.761990
v 0.241497 1.791981 0.761990
v 0.241497 0.268002 0.761990
v -0.241497 1.791981 -0.761990
v -0.241497 0.268002 -0.761990
v -0.241497 1.791981 0.761990
v -0.241497 0.268002 0.761990
v -0.241497 0.029992 -1.000000
v -0.241497 0.029992 1.000000
v 0.241497 2.029992 -1.000000
v 0.241497 0.029992 -1.000000
v -0.241497 2.029992 1.000000
v 0.241497 2.029992 1.000000
v 0.241497 0.029992 1.000000
v -0.241497 2.029992 -1.000000
v 0.000000 0.029992 -1.000000
v 0.000000 2.029992 1.000000
v 0.000000 0.029992 1.000000
v 0.000000 2.029992 -1.000000
v 0.000000 0.268002 -0.761990
v 0.000000 0.268002 0.761990
v 0.000000 1.791981 0.761990
v 0.000000 1.791981 -0.761990
v -0.120749 1.791981 -0.761990
v -0.120749 0.268002 -0.761990
v -0.120749 0.268002 0.761990
v -0.120749 1.791981 0.761990
v 0.120749 0.268002 -0.761990
v 0.120749 0.268002 0.761990
v 0.120749 1.791981 0.761990
v 0.120749 1.791981 -0.761990
v -0.120749 0.268002 -0.661990
v 0.000000 0.268002 -0.661990
v 0.120749 1.791981 -0.661990
v 0.000000 1.791981 -0.661990
v -0.120749 1.791981 -0.661990
v 0.120749 0.268002 -0.661990
v -0.120749 0.268002 0.661990
v 0.000000 0.268002 0.661990
v -0.120749 1.791981 0.661990
v 0.000000 1.791981 0.661990
v 0.120749 0.268002 0.661990
v 0.120749 1.791981 0.661990
v -0.120749 0.368002 -0.761990
v 0.000000 0.368002 -0.761990
v -0.120749 0.368002 0.761990
v 0.000000 0.368002 0.761990
v 0.120749 0.368002 -0.761990
v 0.120749 0.368002 0.761990
v -0.120749 1.691981 0.761990
v 0.000000 1.691981 0.761990
v 0.120749 1.691981 -0.761990
v 0.000000 1.691981 -0.761990
v -0.120749 1.691981 -0.761990
v 0.120749 1.691981 0.761990
vt 0.750000 0.500000
vt 0.875000 0.500000
vt 0.875000 0.750000
vt 0.750000 0.750000
vt 0.375000 0.875000
vt 0.625000 0.875000
vt 0.625000 1.000000
vt 0.375000 1.000000
vt 0.404751 0.547624
vt 0.595249 0.547624
vt 0.595249 0.720249
vt 0.404751 0.720249
vt 0.250000 0.500000
vt 0.375000 0.500000
vt 0.375000 0.750000
vt 0.250000 0.750000
vt 0.404751 0.452376
vt 0.404751 0.529751
vt 0.375000 0.375000
vt 0.625000 0.375000
vt 0.625000 0.500000
vt 0.404751 0.029751
vt 0.404751 0.220249
vt 0.375000 0.250000
vt 0.375000 0.000000
vt 0.595249 0.529751
vt 0.595249 0.029751
vt 0.625000 0.000000
vt 0.625000 0.750000
vt 0.595249 0.220249
vt 0.625000 0.250000
vt 0.595249 0.297624
vt 0.595249 0.202376
vt 0.404751 0.297624
vt 0.125000 0.500000
vt 0.125000 0.750000
vt 0.404751 0.375000
vt 0.404751 0.375000
vt 0.404751 0.297624
vt 0.595249 0.297624
vt 0.595249 0.202376
vt 0.404751 0.202376
vt 0.404751 0.202376
vt 0.404751 0.297624
vt 0.595249 0.375000
vt 0.595249 0.375000
vt 0.595249 0.202376
vt 0.595249 0.375000
vt 0.595249 0.297624
vt 0.595249 0.375000
vt 0.595249 0.375000
vt 0.595249 0.452376
vt 0.404751 0.375000
vt 0.404751 0.547624
vt 0.404751 0.375000
vt 0.404751 0.375000
vt 0.404751 0.547624
vt 0.404751 0.452376
vt 0.595249 0.452376
vt 0.404751 0.202376
vt 0.595249 0.547624
vt 0.404751 0.375000
vt 0.404751 0.452376
vt 0.595249 0.452376
vt 0.595249 0.547624
vt 0.595249 0.375000
vn 0.0000 1.0000 0.0000
vn 0.0000 0.0000 1.0000
vn 0.0000 0.0000 -1.0000
vn 0.0000 -1.0000 0.0000
vn -1.0000 0.0000 0.0000
vn 1.0000 0.0000 0.0000
usemtl Material
s off
f 20/1/1 16/2/1 13/3/1 18/4/1
f 19/5/2 18/6/2 13/7/2 10/8/2
f 30/9/3 31/10/3 3/11/3 4/12/3
f 17/13/4 12/14/4 15/15/4 19/16/4
f 29/17/1 30/9/1 4/12/1 2/18/1
f 17/19/3 20/20/3 11/21/3 12/14/3
f 8/22/5 6/23/5 9/24/5 10/25/5
f 1/26/6 2/18/6 12/14/6 11/21/6
f 7/27/5 8/22/5 10/25/5 13/28/5
f 4/12/6 3/11/6 14/29/6 15/15/6
f 6/23/5 5/30/5 16/31/5 9/24/5
f 3/11/6 1/26/6 11/21/6 14/29/6
f 5/30/5 7/27/5 13/28/5 16/31/5
f 2/18/6 4/12/6 15/15/6 12/14/6
f 25/32/4 28/33/4 7/27/4 5/30/4
f 26/34/2 25/32/2 5/30/2 6/23/2
f 9/24/3 16/31/3 20/20/3 17/19/3
f 9/35/4 17/13/4 19/16/4 10/36/4
f 15/15/2 14/29/2 18/6/2 19/5/2
f 11/21/1 20/1/1 18/4/1 14/29/1
f 26/34/4 21/37/4 34/38/4 33/39/4
f 28/33/5 25/32/5 55/40/5 51/41/5
f 26/34/5 27/42/5 47/43/5 45/44/5
f 28/33/1 23/45/1 42/46/1 41/47/1
f 8/22/3 7/27/3 28/33/3 27/42/3
f 6/23/1 8/22/1 27/42/1 26/34/1
f 24/48/1 25/32/1 37/49/1 36/50/1
f 25/32/3 24/48/3 54/51/3 55/40/3
f 1/26/4 3/11/4 31/10/4 32/52/4
f 2/18/2 1/26/2 32/52/2 29/17/2
f 22/53/2 30/9/2 50/54/2 48/55/2
f 30/9/4 22/53/4 40/56/4 43/57/4
f 38/58/2 35/59/2 36/50/2 34/38/2
f 34/38/2 36/50/2 37/49/2 33/39/2
f 21/37/4 29/17/4 38/58/4 34/38/4
f 32/52/1 24/48/1 36/50/1 35/59/1
f 25/32/5 26/34/5 33/39/5 37/49/5
f 29/17/6 32/52/6 35/59/6 38/58/6
f 39/60/3 41/47/3 42/46/3 40/56/3
f 40/56/3 42/46/3 44/61/3 43/57/3
f 23/45/1 31/10/1 44/61/1 42/46/1
f 31/10/6 30/9/6 43/57/6 44/61/6
f 22/53/4 27/42/4 39/60/4 40/56/4
f 27/42/5 28/33/5 41/47/5 39/60/5
f 45/44/1 47/43/1 48/55/1 46/62/1
f 46/62/1 48/55/1 50/54/1 49/63/1
f 30/9/6 29/17/6 49/63/6 50/54/6
f 21/37/3 26/34/3 45/44/3 46/62/3
f 29/17/3 21/37/3 46/62/3 49/63/3
f 27/42/2 22/53/2 48/55/2 47/43/2
f 53/64/4 56/65/4 52/66/4 54/51/4
f 54/51/4 52/66/4 51/41/4 55/40/4
f 23/45/2 28/33/2 51/41/2 52/66/2
f 32/52/6 31/10/6 56/65/6 53/64/6
f 31/10/2 23/45/2 52/66/2 56/65/2
f 24/48/3 32/52/3 53/64/3 54/51/3
